<svg id="SvgjsSvg1001" width="288" height="288" xmlns="http://www.w3.org/2000/svg" version="1.1" xmlns:xlink="http://www.w3.org/1999/xlink" xmlns:svgjs="http://svgjs.com/svgjs"><defs id="SvgjsDefs1002"></defs><g id="SvgjsG1008" transform="matrix(1,0,0,1,0,0)"><svg xmlns="http://www.w3.org/2000/svg" enable-background="new 0 0 384.97 384.97" viewBox="0 0 384.97 384.97" width="288" height="288"><path d="M12.03 120.303h360.909c6.641 0 12.03-5.39 12.03-12.03 0-6.641-5.39-12.03-12.03-12.03H12.03c-6.641 0-12.03 5.39-12.03 12.03C0 114.913 5.39 120.303 12.03 120.303zM372.939 180.455H12.03c-6.641 0-12.03 5.39-12.03 12.03s5.39 12.03 12.03 12.03h360.909c6.641 0 12.03-5.39 12.03-12.03S379.58 180.455 372.939 180.455zM372.939 264.667H132.333c-6.641 0-12.03 5.39-12.03 12.03 0 6.641 5.39 12.03 12.03 12.03h240.606c6.641 0 12.03-5.39 12.03-12.03C384.97 270.056 379.58 264.667 372.939 264.667z" fill="#ebccc2" class="color000 svgShape"></path></svg></g></svg>